<svg version="1.1" xmlns="http://www.w3.org/2000/svg" viewBox="0 0 1865.7148101443331 907.3086798433787" width="1865.7148101443331" height="907.3086798433787">
  <!-- svg-source:excalidraw -->
  
  <defs>
    <style class="style-fonts">
      @font-face {
        font-family: "Virgil";
        src: url("https://excalidraw.com/Virgil.woff2");
      }
      @font-face {
        font-family: "Cascadia";
        src: url("https://excalidraw.com/Cascadia.woff2");
      }
    </style>
    
  </defs>
  <rect x="0" y="0" width="1865.7148101443331" height="907.3086798433787" fill="#ffffff"></rect><g transform="translate(17.305787586029965 94.42891148158515) rotate(0 283.1897888183594 37.5)"><text x="283.1897888183594" y="0" font-family="Virgil, Segoe UI Emoji" font-size="20px" fill="#1e1e1e" text-anchor="middle" style="white-space: pre;" direction="ltr" dominant-baseline="text-before-edge">Com a nossa solução, dois dos dez técnicos</text><text x="283.1897888183594" y="25" font-family="Virgil, Segoe UI Emoji" font-size="20px" fill="#1e1e1e" text-anchor="middle" style="white-space: pre;" direction="ltr" dominant-baseline="text-before-edge"> em cada setor poderão agora resolver três demandas, </text><text x="283.1897888183594" y="50" font-family="Virgil, Segoe UI Emoji" font-size="20px" fill="#1e1e1e" text-anchor="middle" style="white-space: pre;" direction="ltr" dominant-baseline="text-before-edge">em vez de apenas duas.</text></g><g transform="translate(624.6091266813733 297.56530108749484) rotate(0 65.61995697021484 12.5)"><text x="0" y="0" font-family="Virgil, Segoe UI Emoji" font-size="20px" fill="#1e1e1e" text-anchor="start" style="white-space: pre;" direction="ltr" dominant-baseline="text-before-edge">20 demandas</text></g><g stroke-linecap="round"><g transform="translate(766.3233862377351 313.4050226271488) rotate(0 36.15942431676308 0.2303696041901162)"><path d="M0.14 0.04 C12.17 0.12, 60.28 0.28, 72.28 0.36 M0.04 -0.06 C12.04 0.05, 60.22 0.47, 72.23 0.52" stroke="#1e1e1e" stroke-width="1" fill="none"></path></g><g transform="translate(766.3233862377351 313.4050226271488) rotate(0 36.15942431676308 0.2303696041901162)"><path d="M43.97 10.59 C55.1 6.86, 65.96 2.71, 72.23 0.52 M43.97 10.59 C54.03 6.85, 64.27 3.33, 72.23 0.52" stroke="#1e1e1e" stroke-width="1" fill="none"></path></g><g transform="translate(766.3233862377351 313.4050226271488) rotate(0 36.15942431676308 0.2303696041901162)"><path d="M44.11 -9.93 C55.16 -5.65, 65.97 -1.79, 72.23 0.52 M44.11 -9.93 C54.11 -6.33, 64.3 -2.51, 72.23 0.52" stroke="#1e1e1e" stroke-width="1" fill="none"></path></g></g><mask></mask><g transform="translate(599.8653729756666 676.6081216092584) rotate(0 65.61995697021484 12.5)"><text x="0" y="0" font-family="Virgil, Segoe UI Emoji" font-size="20px" fill="#1e1e1e" text-anchor="start" style="white-space: pre;" direction="ltr" dominant-baseline="text-before-edge">20 demandas</text></g><g transform="translate(1154.4176801045728 335.6366424658431) rotate(0 65.61995697021484 12.5)"><text x="0" y="0" font-family="Virgil, Segoe UI Emoji" font-size="20px" fill="#1e1e1e" text-anchor="start" style="white-space: pre;" direction="ltr" dominant-baseline="text-before-edge">20 demandas</text></g><g transform="translate(1724.4748962039034 271.57958331405734) rotate(0 65.61995697021484 12.5)"><text x="0" y="0" font-family="Virgil, Segoe UI Emoji" font-size="20px" fill="#1e1e1e" text-anchor="start" style="white-space: pre;" direction="ltr" dominant-baseline="text-before-edge">20 demandas</text></g><g transform="translate(1714.817756834484 673.465159834705) rotate(0 65.61995697021484 12.5)"><text x="0" y="0" font-family="Virgil, Segoe UI Emoji" font-size="20px" fill="#1e1e1e" text-anchor="start" style="white-space: pre;" direction="ltr" dominant-baseline="text-before-edge">20 demandas</text></g><g stroke-linecap="round"><g transform="translate(740.9139275323782 692.5293597124937) rotate(0 44.482651367707604 -2.831770284408549)"><path d="M0.09 -0.04 C14.94 -0.92, 74.21 -4.47, 89.02 -5.38 M-0.05 -0.2 C14.78 -1.11, 74.09 -4.77, 88.91 -5.62" stroke="#1e1e1e" stroke-width="1" fill="none"></path></g><g transform="translate(740.9139275323782 692.5293597124937) rotate(0 44.482651367707604 -2.831770284408549)"><path d="M61.38 6.31 C68.56 3.21, 76.03 -0.06, 88.91 -5.62 M61.38 6.31 C69.14 2.91, 77.25 -0.57, 88.91 -5.62" stroke="#1e1e1e" stroke-width="1" fill="none"></path></g><g transform="translate(740.9139275323782 692.5293597124937) rotate(0 44.482651367707604 -2.831770284408549)"><path d="M60.15 -14.18 C67.63 -11.89, 75.42 -9.77, 88.91 -5.62 M60.15 -14.18 C68.29 -11.72, 76.74 -9.34, 88.91 -5.62" stroke="#1e1e1e" stroke-width="1" fill="none"></path></g></g><mask></mask><g stroke-linecap="round"><g transform="translate(1202.1703307833036 367.27953448593234) rotate(0 3.4378367271057186 15.713144017122232)"><path d="M0.03 0.08 C1.19 5.29, 5.84 26.04, 7.02 31.25 M-0.15 -0.02 C0.98 5.22, 5.67 26.26, 6.88 31.45" stroke="#1e1e1e" stroke-width="1" fill="none"></path></g><g transform="translate(1202.1703307833036 367.27953448593234) rotate(0 3.4378367271057186 15.713144017122232)"><path d="M-1.81 17.97 C1.42 22.75, 4.38 27.78, 6.88 31.45 M-1.81 17.97 C1.35 22.68, 4.21 27.47, 6.88 31.45" stroke="#1e1e1e" stroke-width="1" fill="none"></path></g><g transform="translate(1202.1703307833036 367.27953448593234) rotate(0 3.4378367271057186 15.713144017122232)"><path d="M8.89 15.54 C8.28 21.19, 7.4 27.1, 6.88 31.45 M8.89 15.54 C8.28 21.11, 7.38 26.75, 6.88 31.45" stroke="#1e1e1e" stroke-width="1" fill="none"></path></g></g><mask></mask><g stroke-linecap="round"><g transform="translate(1716.9519785926445 284.94020313576766) rotate(0 -51.92159658164073 7.9357901887649405)"><path d="M-0.04 -0.03 C-17.39 2.64, -86.67 13.4, -104.04 16.08 M0.29 -0.21 C-17.08 2.4, -86.77 13.05, -104.13 15.79" stroke="#1e1e1e" stroke-width="1" fill="none"></path></g><g transform="translate(1716.9519785926445 284.94020313576766) rotate(0 -51.92159658164073 7.9357901887649405)"><path d="M-77.84 1.34 C-86.3 6.17, -94.47 10.35, -104.13 15.79 M-77.84 1.34 C-86.36 5.98, -94.8 10.64, -104.13 15.79" stroke="#1e1e1e" stroke-width="1" fill="none"></path></g><g transform="translate(1716.9519785926445 284.94020313576766) rotate(0 -51.92159658164073 7.9357901887649405)"><path d="M-74.7 21.61 C-84.18 19.96, -93.35 17.64, -104.13 15.79 M-74.7 21.61 C-84.25 19.76, -93.7 17.91, -104.13 15.79" stroke="#1e1e1e" stroke-width="1" fill="none"></path></g></g><mask></mask><g stroke-linecap="round"><g transform="translate(1709.866424742199 686.1410273114643) rotate(0 -54.288015770057534 2.80874968404828)"><path d="M0.1 0.08 C-18.01 1.03, -90.58 4.72, -108.67 5.63 M-0.05 -0.01 C-18.1 0.88, -90.3 4.41, -108.37 5.37" stroke="#1e1e1e" stroke-width="1" fill="none"></path></g><g transform="translate(1709.866424742199 686.1410273114643) rotate(0 -54.288015770057534 2.80874968404828)"><path d="M-80.73 -6.3 C-88.27 -3.22, -96.07 0.5, -108.37 5.37 M-80.73 -6.3 C-88.51 -3.03, -95.97 0.18, -108.37 5.37" stroke="#1e1e1e" stroke-width="1" fill="none"></path></g><g transform="translate(1709.866424742199 686.1410273114643) rotate(0 -54.288015770057534 2.80874968404828)"><path d="M-79.69 14.19 C-87.52 11.56, -95.61 9.57, -108.37 5.37 M-79.69 14.19 C-87.74 11.79, -95.49 9.31, -108.37 5.37" stroke="#1e1e1e" stroke-width="1" fill="none"></path></g></g><mask></mask><g transform="translate(889.7382956225888 479.3510589697494) rotate(0 50.76995849609375 12.5)"><text x="0" y="0" font-family="Virgil, Segoe UI Emoji" font-size="20px" fill="#1e1e1e" text-anchor="start" style="white-space: pre;" direction="ltr" dominant-baseline="text-before-edge">9 técnicos</text></g><g stroke-linecap="round"><g transform="translate(939.1621070657498 473.4481157673222) rotate(0 1.2290048453186841 -28.372899266358644)"><path d="M0.13 -0.03 C0.51 -9.49, 1.82 -47.27, 2.15 -56.71 M0.02 -0.18 C0.45 -9.62, 2.04 -47.12, 2.44 -56.51" stroke="#1e1e1e" stroke-width="1" fill="none"></path></g><g transform="translate(939.1621070657498 473.4481157673222) rotate(0 1.2290048453186841 -28.372899266358644)"><path d="M11 -29.44 C8.89 -36.04, 6.97 -42.49, 2.44 -56.51 M11 -29.44 C8.12 -38.15, 5.36 -46.94, 2.44 -56.51" stroke="#1e1e1e" stroke-width="1" fill="none"></path></g><g transform="translate(939.1621070657498 473.4481157673222) rotate(0 1.2290048453186841 -28.372899266358644)"><path d="M-8.4 -30.27 C-5.9 -36.7, -3.22 -42.95, 2.44 -56.51 M-8.4 -30.27 C-5 -38.71, -1.47 -47.23, 2.44 -56.51" stroke="#1e1e1e" stroke-width="1" fill="none"></path></g></g><mask></mask><g transform="translate(872.7391141255689 863.8323934548002) rotate(0 50.76995849609375 12.5)"><text x="0" y="0" font-family="Virgil, Segoe UI Emoji" font-size="20px" fill="#1e1e1e" text-anchor="start" style="white-space: pre;" direction="ltr" dominant-baseline="text-before-edge">9 técnicos</text></g><g stroke-linecap="round"><g transform="translate(925.5967249681648 857.9294502523726) rotate(0 -0.42938161459272806 -28.21066535067399)"><path d="M-0.1 0.04 C-0.24 -9.38, -0.74 -47.05, -0.9 -56.46 M0.11 -0.07 C-0.03 -9.46, -0.82 -46.84, -0.97 -56.27" stroke="#1e1e1e" stroke-width="1" fill="none"></path></g><g transform="translate(925.5967249681648 857.9294502523726) rotate(0 -0.42938161459272806 -28.21066535067399)"><path d="M9.18 -29.92 C6.82 -36.04, 4.34 -42.67, -0.97 -56.27 M9.18 -29.92 C5.84 -38.92, 2.12 -47.99, -0.97 -56.27" stroke="#1e1e1e" stroke-width="1" fill="none"></path></g><g transform="translate(925.5967249681648 857.9294502523726) rotate(0 -0.42938161459272806 -28.21066535067399)"><path d="M-10.13 -29.56 C-7.88 -35.75, -5.75 -42.46, -0.97 -56.27 M-10.13 -29.56 C-6.83 -38.69, -3.9 -47.89, -0.97 -56.27" stroke="#1e1e1e" stroke-width="1" fill="none"></path></g></g><mask></mask><g transform="translate(1447.7867128281364 872.3086798433787) rotate(0 50.76995849609375 12.5)"><text x="0" y="0" font-family="Virgil, Segoe UI Emoji" font-size="20px" fill="#1e1e1e" text-anchor="start" style="white-space: pre;" direction="ltr" dominant-baseline="text-before-edge">9 técnicos</text></g><g stroke-linecap="round"><g transform="translate(1501.3908920390209 866.4057366409515) rotate(0 0.8925491346825822 -36.48418722833031)"><path d="M-0.09 0.07 C0.16 -12.07, 1.26 -60.65, 1.58 -72.8 M0.14 -0.03 C0.43 -12.21, 1.6 -60.87, 1.88 -73.03" stroke="#1e1e1e" stroke-width="1" fill="none"></path></g><g transform="translate(1501.3908920390209 866.4057366409515) rotate(0 0.8925491346825822 -36.48418722833031)"><path d="M11.47 -44.61 C8.15 -54.98, 4.67 -64.78, 1.88 -73.03 M11.47 -44.61 C8.35 -54.19, 4.83 -64.03, 1.88 -73.03" stroke="#1e1e1e" stroke-width="1" fill="none"></path></g><g transform="translate(1501.3908920390209 866.4057366409515) rotate(0 0.8925491346825822 -36.48418722833031)"><path d="M-9.04 -45.09 C-4.99 -55.27, -1.11 -64.9, 1.88 -73.03 M-9.04 -45.09 C-5.17 -54.52, -1.7 -64.2, 1.88 -73.03" stroke="#1e1e1e" stroke-width="1" fill="none"></path></g></g><mask></mask><g transform="translate(1454.682113102505 481.28009504520196) rotate(0 50.76995849609375 12.5)"><text x="0" y="0" font-family="Virgil, Segoe UI Emoji" font-size="20px" fill="#1e1e1e" text-anchor="start" style="white-space: pre;" direction="ltr" dominant-baseline="text-before-edge">9 técnicos</text></g><g stroke-linecap="round"><g transform="translate(1508.1769380404935 475.3771518427743) rotate(0 0.4212697199650677 -37.216507609529344)"><path d="M0.14 0.06 C0.24 -12.32, 0.43 -61.88, 0.53 -74.26 M0.03 -0.04 C0.18 -12.47, 0.7 -62.09, 0.82 -74.49" stroke="#1e1e1e" stroke-width="1" fill="none"></path></g><g transform="translate(1508.1769380404935 475.3771518427743) rotate(0 0.4212697199650677 -37.216507609529344)"><path d="M10.79 -46.2 C8.4 -53.46, 5.89 -60.13, 0.82 -74.49 M10.79 -46.2 C7.2 -56.75, 3.54 -67.03, 0.82 -74.49" stroke="#1e1e1e" stroke-width="1" fill="none"></path></g><g transform="translate(1508.1769380404935 475.3771518427743) rotate(0 0.4212697199650677 -37.216507609529344)"><path d="M-9.73 -46.41 C-6.98 -53.64, -4.35 -60.26, 0.82 -74.49 M-9.73 -46.41 C-5.74 -56.87, -1.82 -67.07, 0.82 -74.49" stroke="#1e1e1e" stroke-width="1" fill="none"></path></g></g><mask></mask><g transform="translate(1169.6725189572285 739.1467651995918) rotate(0 50.76995849609375 12.5)"><text x="0" y="0" font-family="Virgil, Segoe UI Emoji" font-size="20px" fill="#1e1e1e" text-anchor="start" style="white-space: pre;" direction="ltr" dominant-baseline="text-before-edge">9 técnicos</text></g><g stroke-linecap="round"><g transform="translate(1222.209773056386 733.2438219971641) rotate(0 -2.6201985194520034 -49.091762370416745)"><path d="M0.14 0.11 C-0.74 -16.28, -4.49 -81.89, -5.38 -98.29 M0.01 0.03 C-0.81 -16.35, -4.21 -81.74, -5.09 -98.12" stroke="#1e1e1e" stroke-width="1" fill="none"></path></g><g transform="translate(1222.209773056386 733.2438219971641) rotate(0 -2.6201985194520034 -49.091762370416745)"><path d="M6.64 -70.51 C4.06 -77.29, 0.96 -83.45, -5.09 -98.12 M6.64 -70.51 C3.85 -77.18, 0.92 -83.6, -5.09 -98.12" stroke="#1e1e1e" stroke-width="1" fill="none"></path></g><g transform="translate(1222.209773056386 733.2438219971641) rotate(0 -2.6201985194520034 -49.091762370416745)"><path d="M-13.85 -69.43 C-11.58 -76.5, -9.82 -82.91, -5.09 -98.12 M-13.85 -69.43 C-11.8 -76.38, -9.87 -83.06, -5.09 -98.12" stroke="#1e1e1e" stroke-width="1" fill="none"></path></g></g><mask></mask><g transform="translate(1207.618301028297 36.44285220191614) rotate(0 107.07994079589844 12.5)"><text x="0" y="0" font-family="Virgil, Segoe UI Emoji" font-size="20px" fill="#1e1e1e" text-anchor="start" style="white-space: pre;" direction="ltr" dominant-baseline="text-before-edge">Demanda total = 100</text></g><g transform="translate(1215.3136920020684 113.01430039178786) rotate(0 102.80992889404297 12.5)"><text x="0" y="0" font-family="Virgil, Segoe UI Emoji" font-size="20px" fill="#1e1e1e" text-anchor="start" style="white-space: pre;" direction="ltr" dominant-baseline="text-before-edge">Nº de Técnicos = 50</text></g><g transform="translate(49.81951758975083 242.7143518357052) rotate(0 251.59979248046875 37.5)"><text x="251.59979248046875" y="0" font-family="Virgil, Segoe UI Emoji" font-size="20px" fill="#1e1e1e" text-anchor="middle" style="white-space: pre;" direction="ltr" dominant-baseline="text-before-edge">Com isso, não será mais necessário ter 10 técnicos</text><text x="251.59979248046875" y="25" font-family="Virgil, Segoe UI Emoji" font-size="20px" fill="#1e1e1e" text-anchor="middle" style="white-space: pre;" direction="ltr" dominant-baseline="text-before-edge"> em cada setor para atender à demanda; </text><text x="251.59979248046875" y="50" font-family="Virgil, Segoe UI Emoji" font-size="20px" fill="#1e1e1e" text-anchor="middle" style="white-space: pre;" direction="ltr" dominant-baseline="text-before-edge">agora, 9 serão suficientes.</text></g><g stroke-linecap="round" transform="translate(11.142861502511096 72.66673278808594) rotate(0 291.4285496303014 57.42858160109748)"><path d="M28.71 0 C215.83 -0.82, 404.33 0.27, 554.14 0 M28.71 0 C170.53 -0.91, 312.64 -0.83, 554.14 0 M554.14 0 C572.22 0.52, 583.95 9.05, 582.86 28.71 M554.14 0 C572.46 2.05, 581.75 8.07, 582.86 28.71 M582.86 28.71 C584.24 44.93, 584.25 60.01, 582.86 86.14 M582.86 28.71 C582.81 41.02, 582 54.97, 582.86 86.14 M582.86 86.14 C582.55 106.09, 571.56 113.73, 554.14 114.86 M582.86 86.14 C583.55 103.51, 571.13 112.94, 554.14 114.86 M554.14 114.86 C413.19 114.27, 272.13 113.68, 28.71 114.86 M554.14 114.86 C417.57 114.86, 281.65 115.29, 28.71 114.86 M28.71 114.86 C11.46 115.54, 1.98 107.23, 0 86.14 M28.71 114.86 C8.53 116.95, 1.28 106.47, 0 86.14 M0 86.14 C-0.41 74.23, -0.75 58.81, 0 28.71 M0 86.14 C-0.55 66.74, -0.17 47.03, 0 28.71 M0 28.71 C1.28 9.65, 9.48 0.84, 28.71 0 M0 28.71 C0.64 10.78, 9.71 -0.21, 28.71 0" stroke="#e03131" stroke-width="1" fill="none"></path></g><g stroke-linecap="round" transform="translate(10 222.95237731933594) rotate(0 291.4285496303014 51.428571428571445)"><path d="M25.71 0 C186.98 2.31, 348.45 2.63, 557.14 0 M25.71 0 C208.82 -0.06, 391.89 -0.06, 557.14 0 M557.14 0 C575.38 -0.52, 582.14 10.36, 582.86 25.71 M557.14 0 C573.18 -1.5, 582.11 8.88, 582.86 25.71 M582.86 25.71 C584.51 40.78, 581.62 52.69, 582.86 77.14 M582.86 25.71 C582.84 45.38, 582.97 63.77, 582.86 77.14 M582.86 77.14 C581.13 93.16, 574.89 101.31, 557.14 102.86 M582.86 77.14 C580.7 92.37, 573.57 102.16, 557.14 102.86 M557.14 102.86 C423.45 103.8, 288.71 103.22, 25.71 102.86 M557.14 102.86 C391.06 101.62, 225.1 101.59, 25.71 102.86 M25.71 102.86 C10.55 104.8, -0.91 96.1, 0 77.14 M25.71 102.86 C9.85 104.04, -1.48 94, 0 77.14 M0 77.14 C-0.7 60.39, 0.97 43.33, 0 25.71 M0 77.14 C-0.01 57.25, 1.04 36.94, 0 25.71 M0 25.71 C-0.09 9.41, 9.12 1.05, 25.71 0 M0 25.71 C0.14 8.36, 10.85 -1.12, 25.71 0" stroke="#e03131" stroke-width="1" fill="none"></path></g><g stroke-linecap="round" transform="translate(849.3810846237925 10) rotate(0 149.33334350585938 70.66665649414062)"><path d="M32 0 C80.3 0.55, 130.36 -1.66, 266.67 0 M32 0 C103.81 -0.33, 176.99 -0.77, 266.67 0 M266.67 0 C287.28 1.78, 297.71 9.36, 298.67 32 M266.67 0 C287.25 0.31, 298.25 12.17, 298.67 32 M298.67 32 C297.6 56.53, 300.5 86.1, 298.67 109.33 M298.67 32 C298.29 52.5, 297.58 71.63, 298.67 109.33 M298.67 109.33 C299.27 129.12, 286.12 139.67, 266.67 141.33 M298.67 109.33 C297.95 129.97, 286.9 142.02, 266.67 141.33 M266.67 141.33 C183.31 139.34, 101.53 139.8, 32 141.33 M266.67 141.33 C212.51 142.43, 157.59 142.96, 32 141.33 M32 141.33 C9.76 143.15, 1.11 131.7, 0 109.33 M32 141.33 C9.19 141.05, 0.48 130.11, 0 109.33 M0 109.33 C1.17 79.01, 2.14 48.77, 0 32 M0 109.33 C0.96 84.12, 0.27 59.26, 0 32 M0 32 C0.55 11.72, 10.79 -0.18, 32 0 M0 32 C2.28 9.55, 11.85 -0.88, 32 0" stroke="#e03131" stroke-width="1" fill="none"></path></g><g stroke-linecap="round" transform="translate(1170.7144993373345 16.66666666666697) rotate(0 142.66662597656276 33.33333333333333)"><path d="M16.67 0 C104.09 -2.49, 190.18 -2.08, 268.67 0 M16.67 0 C99.76 -0.75, 181.67 0.19, 268.67 0 M268.67 0 C278.82 -1.3, 284.68 5.82, 285.33 16.67 M268.67 0 C279.36 1.5, 286.32 7.07, 285.33 16.67 M285.33 16.67 C286.39 28.68, 284.27 38.03, 285.33 50 M285.33 16.67 C284.42 28.92, 285.58 41.53, 285.33 50 M285.33 50 C283.46 59.45, 279.15 66.06, 268.67 66.67 M285.33 50 C284.23 61.8, 280.98 67.69, 268.67 66.67 M268.67 66.67 C198.73 63.69, 127.31 65.27, 16.67 66.67 M268.67 66.67 C183.6 68.16, 96.55 68.1, 16.67 66.67 M16.67 66.67 C6.67 67.7, -1.28 60.86, 0 50 M16.67 66.67 C6.03 66.11, 1.87 60.17, 0 50 M0 50 C1.68 38.86, 0.39 30.02, 0 16.67 M0 50 C-0.26 39.67, 0.06 29.02, 0 16.67 M0 16.67 C0.12 5.38, 7.54 -0.97, 16.67 0 M0 16.67 C1.19 4.68, 4.14 1.88, 16.67 0" stroke="#e03131" stroke-width="1" fill="none"></path></g><g stroke-linecap="round" transform="translate(1169.3810846237934 96.66664123535156) rotate(0 142.66662597656276 33.333333333333314)"><path d="M16.67 0 C113.67 0.61, 210.87 0.09, 268.67 0 M16.67 0 C98.55 1.26, 180.64 0.01, 268.67 0 M268.67 0 C279.13 0.27, 284.97 6.86, 285.33 16.67 M268.67 0 C280.77 1.52, 286 3.74, 285.33 16.67 M285.33 16.67 C284.75 22.77, 287.24 29.7, 285.33 50 M285.33 16.67 C285.35 27.24, 284.11 38.52, 285.33 50 M285.33 50 C284.71 60.51, 278.82 67.26, 268.67 66.67 M285.33 50 C286.54 62.14, 279.28 65.73, 268.67 66.67 M268.67 66.67 C215.47 65.84, 165.07 66.86, 16.67 66.67 M268.67 66.67 C184.1 69.39, 100.73 69.08, 16.67 66.67 M16.67 66.67 C4.27 66.42, 0.41 60.62, 0 50 M16.67 66.67 C7.43 65.72, -0.29 62.09, 0 50 M0 50 C0.23 40.55, 0.15 34.02, 0 16.67 M0 50 C0.29 40.39, 0.08 29.65, 0 16.67 M0 16.67 C1.98 4.58, 6.59 -0.77, 16.67 0 M0 16.67 C-1.42 7.43, 5.94 -0.04, 16.67 0" stroke="#e03131" stroke-width="1" fill="none"></path></g><g stroke-linecap="round" transform="translate(842.2666633242684 211.8381456647594) rotate(0 100 99.99995640345975)"><path d="M126.25 25 C139.12 36.69, 151.36 51.51, 174.75 75 M126.25 25 C138.87 37.6, 152.3 52.08, 174.75 75 M174.75 75 C199.63 101.31, 200.86 101.32, 174.75 125 M174.75 75 C200.67 98.19, 197.7 101.52, 174.75 125 M174.75 125 C159.14 142.18, 141.16 158.39, 126.25 175 M174.75 125 C162.16 135.97, 150.97 148.67, 126.25 175 M126.25 175 C100.04 200.6, 102.05 200.89, 75.75 175 M126.25 175 C100.5 199.07, 98.86 200.29, 75.75 175 M75.75 175 C65.05 165.32, 53.07 153.68, 25.25 125 M75.75 175 C56.48 156.12, 35.23 135.63, 25.25 125 M25.25 125 C0.41 99.51, 1.63 99.18, 25.25 75 M25.25 125 C-0.29 100.98, -0.94 102.1, 25.25 75 M25.25 75 C36.77 65.4, 47.6 52.93, 75.75 25 M25.25 75 C42.45 57.54, 60.66 40.04, 75.75 25 M75.75 25 C102.03 -0.77, 99.77 1.63, 126.25 25 M75.75 25 C101.38 -0.04, 102.83 -1.72, 126.25 25" stroke="#1971c2" stroke-width="1" fill="none"></path></g><g transform="translate(907.5166938418465 299.33812386648924) rotate(0 34.749969482421875 12.5)"><text x="34.749969482421875" y="0" font-family="Virgil, Segoe UI Emoji" font-size="20px" fill="#1971c2" text-anchor="middle" style="white-space: pre;" direction="ltr" dominant-baseline="text-before-edge">Setor 1</text></g><g stroke-linecap="round" transform="translate(1403.4547991071472 202.4666989644361) rotate(0 100 99.99995640345975)"><path d="M126.25 25 C137.82 36.35, 152.09 48.44, 174.75 75 M126.25 25 C137.29 37.33, 149.29 49.07, 174.75 75 M174.75 75 C200.58 98.42, 198 101.32, 174.75 125 M174.75 75 C201.21 99.08, 199.35 101.94, 174.75 125 M174.75 125 C160.02 139.41, 145.81 151.15, 126.25 175 M174.75 125 C163.6 135.99, 154.09 146.98, 126.25 175 M126.25 175 C100.57 199.19, 99.14 200.26, 75.75 175 M126.25 175 C99.5 198.49, 101.73 200.94, 75.75 175 M75.75 175 C57.6 154.87, 37.56 137.18, 25.25 125 M75.75 175 C58.52 157.12, 41.38 139.37, 25.25 125 M25.25 125 C-0.25 100.85, -0.82 101.83, 25.25 75 M25.25 125 C-1.8 100.61, -0.94 100.52, 25.25 75 M25.25 75 C44.47 57.37, 63.06 38.72, 75.75 25 M25.25 75 C39.97 60.31, 53.53 46.96, 75.75 25 M75.75 25 C101.33 -0.03, 102.59 -1.49, 126.25 25 M75.75 25 C98.91 -0.07, 101.67 -0.77, 126.25 25" stroke="#1971c2" stroke-width="1" fill="none"></path></g><g transform="translate(1464.2948335920105 289.96667716616594) rotate(0 39.15996551513672 12.5)"><text x="39.15996551513672" y="0" font-family="Virgil, Segoe UI Emoji" font-size="20px" fill="#1971c2" text-anchor="middle" style="white-space: pre;" direction="ltr" dominant-baseline="text-before-edge">Setor 2</text></g><g stroke-linecap="round" transform="translate(1115.5880185081883 416.3333066304517) rotate(0 100 99.99995640345975)"><path d="M126.25 25 C138.19 37.78, 152.57 51.26, 174.75 75 M126.25 25 C144.47 42.16, 160.9 61.87, 174.75 75 M174.75 75 C201.05 99.2, 199.43 101.69, 174.75 125 M174.75 75 C199.64 100.93, 198.02 98.7, 174.75 125 M174.75 125 C156.68 140.43, 141.73 156.61, 126.25 175 M174.75 125 C158.8 141.3, 142.09 158.32, 126.25 175 M126.25 175 C99.69 198.68, 101.63 200.82, 75.75 175 M126.25 175 C103.17 200.78, 103.28 202.23, 75.75 175 M75.75 175 C63.47 161.26, 49.32 150.23, 25.25 125 M75.75 175 C61.29 161.43, 47.09 148.14, 25.25 125 M25.25 125 C-1.56 100.53, -0.82 100.45, 25.25 75 M25.25 125 C1.48 100.09, -0.1 100.97, 25.25 75 M25.25 75 C41.36 60.57, 57.11 43.23, 75.75 25 M25.25 75 C38.94 61.49, 52.79 47.67, 75.75 25 M75.75 25 C99.18 -0.06, 101.58 -0.67, 126.25 25 M75.75 25 C100.07 0.09, 100.27 -0.21, 126.25 25" stroke="#1971c2" stroke-width="1" fill="none"></path></g><g transform="translate(1176.7380505516453 503.83328483218156) rotate(0 38.84996795654297 12.5)"><text x="38.84996795654297" y="0" font-family="Virgil, Segoe UI Emoji" font-size="20px" fill="#1971c2" text-anchor="middle" style="white-space: pre;" direction="ltr" dominant-baseline="text-before-edge">Setor 3</text></g><g stroke-linecap="round" transform="translate(837.9881243024597 589.0666236877432) rotate(0 100 99.99995640345975)"><path d="M126.25 25 C140.59 39.32, 153.57 52.41, 174.75 75 M126.25 25 C137.01 35.34, 146.93 47.65, 174.75 75 M174.75 75 C199.69 100.81, 198.27 98.87, 174.75 125 M174.75 75 C200.7 98.23, 197.84 98.09, 174.75 125 M174.75 125 C162.16 139.25, 149.43 151.21, 126.25 175 M174.75 125 C161.05 137.38, 149.44 151.41, 126.25 175 M126.25 175 C102.89 200.68, 102.98 201.94, 75.75 175 M126.25 175 C99.96 202.09, 102.28 201.19, 75.75 175 M75.75 175 C63.42 164.95, 51.18 151.27, 25.25 125 M75.75 175 C57.88 158.6, 40.96 141.44, 25.25 125 M25.25 125 C1.28 100.08, -0.09 100.84, 25.25 75 M25.25 125 C0.64 101.21, 0.14 99.79, 25.25 75 M25.25 75 C44.88 53.56, 67.42 35.17, 75.75 25 M25.25 75 C39.01 60.42, 55.29 45.2, 75.75 25 M75.75 25 C100.2 0.08, 100.36 -0.18, 126.25 25 M75.75 25 C99.25 -1.86, 102.16 -0.33, 126.25 25" stroke="#1971c2" stroke-width="1" fill="none"></path></g><g transform="translate(899.5481600080261 676.5666018894731) rotate(0 38.439964294433594 12.5)"><text x="38.439964294433594" y="0" font-family="Virgil, Segoe UI Emoji" font-size="20px" fill="#1971c2" text-anchor="middle" style="white-space: pre;" direction="ltr" dominant-baseline="text-before-edge">Setor 4</text></g><g stroke-linecap="round" transform="translate(1399.6547095889177 592.0666033426915) rotate(0 100 99.99995640345975)"><path d="M126.25 25 C141.64 40.01, 161.17 60.21, 174.75 75 M126.25 25 C138.56 37.99, 150.46 50.02, 174.75 75 M174.75 75 C200.6 98.46, 198.12 98.34, 174.75 125 M174.75 75 C199.28 99.31, 198.9 100.69, 174.75 125 M174.75 125 C157.07 140.65, 141.05 158.82, 126.25 175 M174.75 125 C164.49 137.25, 153.18 149.59, 126.25 175 M126.25 175 C100.09 201.82, 102.11 201.03, 75.75 175 M126.25 175 C99.52 199.71, 101.48 199.44, 75.75 175 M75.75 175 C57.54 155.04, 39.25 135.22, 25.25 125 M75.75 175 C60.11 158.83, 42.93 142.88, 25.25 125 M25.25 125 C0.55 101.05, 0.12 99.82, 25.25 75 M25.25 125 C2.28 98.88, 1.19 99.12, 25.25 75 M25.25 75 C36.85 64.58, 47.43 49.25, 75.75 25 M25.25 75 C39.69 60.37, 54.76 45.4, 75.75 25 M75.75 25 C99.48 -1.62, 102.01 -0.29, 126.25 25 M75.75 25 C100.52 -0.19, 98.77 0.9, 126.25 25" stroke="#1971c2" stroke-width="1" fill="none"></path></g><g transform="translate(1461.4347465151873 679.5665815444213) rotate(0 38.21996307373047 12.5)"><text x="38.21996307373047" y="0" font-family="Virgil, Segoe UI Emoji" font-size="20px" fill="#1971c2" text-anchor="middle" style="white-space: pre;" direction="ltr" dominant-baseline="text-before-edge">Setor 5</text></g><g transform="translate(867.6589762369863 56.75752894083598) rotate(0 132.41990661621094 25)"><text x="132.41990661621094" y="0" font-family="Virgil, Segoe UI Emoji" font-size="20px" fill="#1e1e1e" text-anchor="middle" style="white-space: pre;" direction="ltr" dominant-baseline="text-before-edge">Cada técnico é capaz de </text><text x="132.41990661621094" y="25" font-family="Virgil, Segoe UI Emoji" font-size="20px" fill="#1e1e1e" text-anchor="middle" style="white-space: pre;" direction="ltr" dominant-baseline="text-before-edge">atender a duas demandas.</text></g></svg>