<svg version="1.1" xmlns="http://www.w3.org/2000/svg" viewBox="0 0 1244.7055369785855 911.653031284194" width="1244.7055369785855" height="911.653031284194">
  <!-- svg-source:excalidraw -->
  
  <defs>
    <style class="style-fonts">
      @font-face {
        font-family: "Virgil";
        src: url("https://excalidraw.com/Virgil.woff2");
      }
      @font-face {
        font-family: "Cascadia";
        src: url("https://excalidraw.com/Cascadia.woff2");
      }
    </style>
    
  </defs>
  <rect x="0" y="0" width="1244.7055369785855" height="911.653031284194" fill="#ffffff"></rect><g transform="translate(10 284.78590229579504) rotate(0 65.61995697021484 12.5)"><text x="0" y="0" font-family="Virgil, Segoe UI Emoji" font-size="20px" fill="#1e1e1e" text-anchor="start" style="white-space: pre;" direction="ltr" dominant-baseline="text-before-edge">20 demandas</text></g><g stroke-linecap="round"><g transform="translate(151.71425955636164 302.51306324072834) rotate(0 37.5662467224482 -2.83103350808517)"><path d="M-0.12 0.09 C12.44 -0.88, 62.67 -4.77, 75.25 -5.75 M0.11 0 C12.66 -0.95, 62.6 -4.63, 75.14 -5.57" stroke="#1e1e1e" stroke-width="1" fill="none"></path></g><g transform="translate(151.71425955636164 302.51306324072834) rotate(0 37.5662467224482 -2.83103350808517)"><path d="M47.79 6.75 C54.43 3.93, 60.64 1.27, 75.14 -5.57 M47.79 6.75 C54.44 3.82, 61.29 0.69, 75.14 -5.57" stroke="#1e1e1e" stroke-width="1" fill="none"></path></g><g transform="translate(151.71425955636164 302.51306324072834) rotate(0 37.5662467224482 -2.83103350808517)"><path d="M46.27 -13.71 C53.28 -11.7, 59.85 -9.52, 75.14 -5.57 M46.27 -13.71 C53.28 -11.56, 60.5 -9.61, 75.14 -5.57" stroke="#1e1e1e" stroke-width="1" fill="none"></path></g></g><mask></mask><g transform="translate(33.522847856794215 693.4286984034959) rotate(0 65.61995697021484 12.5)"><text x="0" y="0" font-family="Virgil, Segoe UI Emoji" font-size="20px" fill="#1e1e1e" text-anchor="start" style="white-space: pre;" direction="ltr" dominant-baseline="text-before-edge">20 demandas</text></g><g transform="translate(551.0086114065989 298.85735048566664) rotate(0 65.61995697021484 12.5)"><text x="0" y="0" font-family="Virgil, Segoe UI Emoji" font-size="20px" fill="#1e1e1e" text-anchor="start" style="white-space: pre;" direction="ltr" dominant-baseline="text-before-edge">20 demandas</text></g><g transform="translate(1103.4656230381559 287.60023335048254) rotate(0 65.61995697021484 12.5)"><text x="0" y="0" font-family="Virgil, Segoe UI Emoji" font-size="20px" fill="#1e1e1e" text-anchor="start" style="white-space: pre;" direction="ltr" dominant-baseline="text-before-edge">20 demandas</text></g><g transform="translate(1098.608532496861 686.2857976640987) rotate(0 65.61995697021484 12.5)"><text x="0" y="0" font-family="Virgil, Segoe UI Emoji" font-size="20px" fill="#1e1e1e" text-anchor="start" style="white-space: pre;" direction="ltr" dominant-baseline="text-before-edge">20 demandas</text></g><g stroke-linecap="round"><g transform="translate(174.57140241350464 709.0663811849871) rotate(0 21.42282947966757 -1.1048531203856555)"><path d="M0.07 0.01 C7.18 -0.31, 35.52 -1.63, 42.64 -2.01 M-0.08 -0.11 C7.09 -0.47, 35.79 -1.88, 42.92 -2.22" stroke="#1e1e1e" stroke-width="1" fill="none"></path></g><g transform="translate(174.57140241350464 709.0663811849871) rotate(0 21.42282947966757 -1.1048531203856555)"><path d="M23.19 6.07 C28.69 3.53, 34.37 1.54, 42.92 -2.22 M23.19 6.07 C27.22 4.48, 31.12 2.58, 42.92 -2.22" stroke="#1e1e1e" stroke-width="1" fill="none"></path></g><g transform="translate(174.57140241350464 709.0663811849871) rotate(0 21.42282947966757 -1.1048531203856555)"><path d="M22.48 -8.55 C28.17 -7.03, 34.04 -4.96, 42.92 -2.22 M22.48 -8.55 C26.67 -7.17, 30.72 -6.1, 42.92 -2.22" stroke="#1e1e1e" stroke-width="1" fill="none"></path></g></g><mask></mask><g stroke-linecap="round"><g transform="translate(604.247174306938 324.85735048566664) rotate(0 -1.5758873375431648 38.91679052688691)"><path d="M0.01 0.09 C-0.52 13.04, -2.57 64.91, -3.06 77.83 M-0.17 0 C-0.72 12.9, -2.69 64.67, -3.16 77.62" stroke="#1e1e1e" stroke-width="1" fill="none"></path></g><g transform="translate(604.247174306938 324.85735048566664) rotate(0 -1.5758873375431648 38.91679052688691)"><path d="M-12.36 49.07 C-8.73 59.78, -5.25 70.63, -3.16 77.62 M-12.36 49.07 C-10.25 55.82, -7.89 62.65, -3.16 77.62" stroke="#1e1e1e" stroke-width="1" fill="none"></path></g><g transform="translate(604.247174306938 324.85735048566664) rotate(0 -1.5758873375431648 38.91679052688691)"><path d="M8.14 49.83 C4.13 60.26, -0.02 70.82, -3.16 77.62 M8.14 49.83 C5.37 56.42, 2.83 63.07, -3.16 77.62" stroke="#1e1e1e" stroke-width="1" fill="none"></path></g></g><mask></mask><g stroke-linecap="round"><g transform="translate(1095.9427054268974 297.81451034546023) rotate(0 -53.70085631662607 3.9953301390088427)"><path d="M0.04 -0.11 C-17.85 1.25, -89.41 6.74, -107.35 8.11 M-0.15 0.19 C-18.04 1.5, -89.59 6.6, -107.44 7.87" stroke="#1e1e1e" stroke-width="1" fill="none"></path></g><g transform="translate(1095.9427054268974 297.81451034546023) rotate(0 -53.70085631662607 3.9953301390088427)"><path d="M-80.05 -4.37 C-88.05 -0.73, -95.39 2.31, -107.44 7.87 M-80.05 -4.37 C-89.5 -0.26, -98.55 3.77, -107.44 7.87" stroke="#1e1e1e" stroke-width="1" fill="none"></path></g><g transform="translate(1095.9427054268974 297.81451034546023) rotate(0 -53.70085631662607 3.9953301390088427)"><path d="M-78.59 16.1 C-86.99 13.93, -94.75 11.16, -107.44 7.87 M-78.59 16.1 C-88.52 13.26, -98.06 10.34, -107.44 7.87" stroke="#1e1e1e" stroke-width="1" fill="none"></path></g></g><mask></mask><g stroke-linecap="round"><g transform="translate(1093.6572004045759 698.9616651408583) rotate(0 -55.093835302907905 2.081452342261116)"><path d="M0.13 0.09 C-18.26 0.73, -91.91 3.31, -110.31 3.98 M0 0 C-18.34 0.73, -91.69 3.52, -110.03 4.16" stroke="#1e1e1e" stroke-width="1" fill="none"></path></g><g transform="translate(1093.6572004045759 698.9616651408583) rotate(0 -55.093835302907905 2.081452342261116)"><path d="M-82.23 -7.13 C-90.41 -3.94, -99.03 -0.54, -110.03 4.16 M-82.23 -7.13 C-92.43 -2.89, -102.46 1.16, -110.03 4.16" stroke="#1e1e1e" stroke-width="1" fill="none"></path></g><g transform="translate(1093.6572004045759 698.9616651408583) rotate(0 -55.093835302907905 2.081452342261116)"><path d="M-81.48 13.38 C-89.92 10.39, -98.76 7.61, -110.03 4.16 M-81.48 13.38 C-91.96 10.14, -102.27 6.71, -110.03 4.16" stroke="#1e1e1e" stroke-width="1" fill="none"></path></g></g><mask></mask><g transform="translate(275.1291689412168 466.57166017804957) rotate(0 54.26995849609375 12.5)"><text x="0" y="0" font-family="Virgil, Segoe UI Emoji" font-size="20px" fill="#1e1e1e" text-anchor="start" style="white-space: pre;" direction="ltr" dominant-baseline="text-before-edge">10 técnicos</text></g><g stroke-linecap="round"><g transform="translate(332.55322320826315 460.66871697562215) rotate(0 0.585424701188856 -26.203448245296016)"><path d="M0.15 0.09 C0.35 -8.67, 0.96 -43.73, 1.13 -52.49 M0.04 0 C0.23 -8.73, 0.83 -43.6, 1 -52.31" stroke="#1e1e1e" stroke-width="1" fill="none"></path></g><g transform="translate(332.55322320826315 460.66871697562215) rotate(0 0.585424701188856 -26.203448245296016)"><path d="M9.52 -27.49 C7.71 -33.26, 5.54 -38.9, 1 -52.31 M9.52 -27.49 C6.84 -34.89, 4.26 -42.54, 1 -52.31" stroke="#1e1e1e" stroke-width="1" fill="none"></path></g><g transform="translate(332.55322320826315 460.66871697562215) rotate(0 0.585424701188856 -26.203448245296016)"><path d="M-8.43 -27.82 C-6.08 -33.54, -4.1 -39.11, 1 -52.31 M-8.43 -27.82 C-5.69 -35.12, -2.84 -42.67, 1 -52.31" stroke="#1e1e1e" stroke-width="1" fill="none"></path></g></g><mask></mask><g transform="translate(243.72996303013406 876.653031284194) rotate(0 54.26995849609375 12.5)"><text x="0" y="0" font-family="Virgil, Segoe UI Emoji" font-size="20px" fill="#1e1e1e" text-anchor="start" style="white-space: pre;" direction="ltr" dominant-baseline="text-before-edge">10 técnicos</text></g><g stroke-linecap="round"><g transform="translate(301.2963217259245 870.7500880817665) rotate(0 0.8576752541118395 -27.975121987505304)"><path d="M0.11 -0.09 C0.4 -9.39, 1.46 -46.61, 1.73 -55.94 M-0.01 0.19 C0.26 -9.14, 1.37 -46.78, 1.65 -56.14" stroke="#1e1e1e" stroke-width="1" fill="none"></path></g><g transform="translate(301.2963217259245 870.7500880817665) rotate(0 0.8576752541118395 -27.975121987505304)"><path d="M10.45 -29.52 C7.54 -37.76, 5.17 -46.15, 1.65 -56.14 M10.45 -29.52 C8.02 -36.92, 5.61 -44.37, 1.65 -56.14" stroke="#1e1e1e" stroke-width="1" fill="none"></path></g><g transform="translate(301.2963217259245 870.7500880817665) rotate(0 0.8576752541118395 -27.975121987505304)"><path d="M-8.72 -30.08 C-5.59 -38.16, -1.91 -46.38, 1.65 -56.14 M-8.72 -30.08 C-5.81 -37.31, -2.87 -44.61, 1.65 -56.14" stroke="#1e1e1e" stroke-width="1" fill="none"></path></g></g><mask></mask><g transform="translate(830.2441755022326 875.7959233042831) rotate(0 54.26995849609375 12.5)"><text x="0" y="0" font-family="Virgil, Segoe UI Emoji" font-size="20px" fill="#1e1e1e" text-anchor="start" style="white-space: pre;" direction="ltr" dominant-baseline="text-before-edge">10 técnicos</text></g><g stroke-linecap="round"><g transform="translate(887.4503024701999 869.8929801018558) rotate(0 0.2798053623124872 -32.96871363812602)"><path d="M-0.06 0.14 C0.05 -10.86, 0.51 -54.87, 0.62 -65.88 M0.18 0.08 C0.27 -10.96, 0.44 -55.04, 0.48 -66.08" stroke="#1e1e1e" stroke-width="1" fill="none"></path></g><g transform="translate(887.4503024701999 869.8929801018558) rotate(0 0.2798053623124872 -32.96871363812602)"><path d="M10.63 -37.85 C8.13 -45.56, 5.34 -53.28, 0.48 -66.08 M10.63 -37.85 C7.14 -47.72, 3.5 -57.38, 0.48 -66.08" stroke="#1e1e1e" stroke-width="1" fill="none"></path></g><g transform="translate(887.4503024701999 869.8929801018558) rotate(0 0.2798053623124872 -32.96871363812602)"><path d="M-9.89 -37.93 C-6.84 -45.61, -4.09 -53.31, 0.48 -66.08 M-9.89 -37.93 C-6.23 -47.77, -2.72 -57.4, 0.48 -66.08" stroke="#1e1e1e" stroke-width="1" fill="none"></path></g></g><mask></mask><g transform="translate(829.6727992466522 467.96740157576755) rotate(0 54.26995849609375 12.5)"><text x="0" y="0" font-family="Virgil, Segoe UI Emoji" font-size="20px" fill="#1e1e1e" text-anchor="start" style="white-space: pre;" direction="ltr" dominant-baseline="text-before-edge">10 técnicos</text></g><g stroke-linecap="round"><g transform="translate(886.8789262146192 462.06445837334013) rotate(0 0.2816278041020439 -31.209800289483326)"><path d="M-0.14 -0.06 C-0.03 -10.43, 0.56 -51.79, 0.7 -62.15 M0.06 -0.22 C0.14 -10.64, 0.52 -52.05, 0.63 -62.36" stroke="#1e1e1e" stroke-width="1" fill="none"></path></g><g transform="translate(886.8789262146192 462.06445837334013) rotate(0 0.2816278041020439 -31.209800289483326)"><path d="M10.62 -34.07 C7.03 -43.72, 3.88 -53.44, 0.63 -62.36 M10.62 -34.07 C7.31 -42.97, 4.17 -51.95, 0.63 -62.36" stroke="#1e1e1e" stroke-width="1" fill="none"></path></g><g transform="translate(886.8789262146192 462.06445837334013) rotate(0 0.2816278041020439 -31.209800289483326)"><path d="M-9.9 -34.27 C-6.4 -43.82, -2.46 -53.47, 0.63 -62.36 M-9.9 -34.27 C-6.71 -43.1, -3.34 -52.01, 0.63 -62.36" stroke="#1e1e1e" stroke-width="1" fill="none"></path></g></g><mask></mask><g transform="translate(546.9300558907647 680.3675545996236) rotate(0 54.26995849609375 12.5)"><text x="0" y="0" font-family="Virgil, Segoe UI Emoji" font-size="20px" fill="#1e1e1e" text-anchor="start" style="white-space: pre;" direction="ltr" dominant-baseline="text-before-edge">10 técnicos</text></g><g stroke-linecap="round"><g transform="translate(604.3544646119324 674.464611397196) rotate(0 -3.270273730762085 -35.04435695716563)"><path d="M0.14 -0.11 C-0.98 -11.79, -5.56 -58.37, -6.68 -70.04 M0.02 0.18 C-1.06 -11.54, -5.25 -58.58, -6.38 -70.27" stroke="#1e1e1e" stroke-width="1" fill="none"></path></g><g transform="translate(604.3544646119324 674.464611397196) rotate(0 -3.270273730762085 -35.04435695716563)"><path d="M6.43 -43.14 C1.81 -52.64, -2.15 -61.81, -6.38 -70.27 M6.43 -43.14 C2.59 -51.57, -1.57 -59.83, -6.38 -70.27" stroke="#1e1e1e" stroke-width="1" fill="none"></path></g><g transform="translate(604.3544646119324 674.464611397196) rotate(0 -3.270273730762085 -35.04435695716563)"><path d="M-14 -41.25 C-11.61 -51.43, -8.56 -61.25, -6.38 -70.27 M-14 -41.25 C-11.54 -50.24, -9.4 -59.08, -6.38 -70.27" stroke="#1e1e1e" stroke-width="1" fill="none"></path></g></g><mask></mask><g stroke-linecap="round" transform="translate(234.90716625395885 198.07619730631515) rotate(0 100 99.99995640345975)"><path d="M126.25 25 C142.73 38.75, 156.49 57.42, 174.75 75 M126.25 25 C141.65 41.46, 158.34 57.09, 174.75 75 M174.75 75 C198.75 100.87, 199.66 101.15, 174.75 125 M174.75 75 C201.39 98.67, 201.54 98.72, 174.75 125 M174.75 125 C162.88 137.3, 152.67 148.15, 126.25 175 M174.75 125 C161.85 139.23, 147.42 152.82, 126.25 175 M126.25 175 C101.73 199.17, 100.45 200.87, 75.75 175 M126.25 175 C101.04 200.08, 103.11 199.35, 75.75 175 M75.75 175 C61.67 162.26, 45.03 145.56, 25.25 125 M75.75 175 C63.55 164.16, 54.16 153.85, 25.25 125 M25.25 125 C1.96 99.76, -0.59 99.82, 25.25 75 M25.25 125 C-0.54 98.83, 1.69 97.88, 25.25 75 M25.25 75 C44.35 56.2, 61.39 36.85, 75.75 25 M25.25 75 C37.59 62.99, 50.91 48.78, 75.75 25 M75.75 25 C99.14 -0.41, 99.38 0.23, 126.25 25 M75.75 25 C99.19 -0.88, 102.97 -1.92, 126.25 25" stroke="#1971c2" stroke-width="1" fill="none"></path></g><g transform="translate(300.157196771537 285.576175508045) rotate(0 34.749969482421875 12.5)"><text x="34.749969482421875" y="0" font-family="Virgil, Segoe UI Emoji" font-size="20px" fill="#1971c2" text-anchor="middle" style="white-space: pre;" direction="ltr" dominant-baseline="text-before-edge">Setor 1</text></g><g stroke-linecap="round" transform="translate(499.6072089785682 409.0761820475261) rotate(0 100 99.99995640345975)"><path d="M126.25 25 C138.57 34.8, 147.74 46.12, 174.75 75 M126.25 25 C137.27 35.56, 147.97 45.92, 174.75 75 M174.75 75 C198.64 100.12, 201.81 100.08, 174.75 125 M174.75 75 C200.33 101.37, 200.47 101.46, 174.75 125 M174.75 125 C156.58 143.97, 143.66 159.34, 126.25 175 M174.75 125 C162.84 136.64, 149.74 148.6, 126.25 175 M126.25 175 C102.11 198.14, 101.18 198.55, 75.75 175 M126.25 175 C100.57 200.83, 101.71 200.04, 75.75 175 M75.75 175 C66.67 166.07, 53.88 154.4, 25.25 125 M75.75 175 C59.88 160.01, 45.65 145.03, 25.25 125 M25.25 125 C-0.02 100.78, 0.4 99.95, 25.25 75 M25.25 125 C0.15 101.27, -0.33 101.88, 25.25 75 M25.25 75 C42.09 55.74, 61.6 37.82, 75.75 25 M25.25 75 C38.08 61.93, 52.34 48.85, 75.75 25 M75.75 25 C99.2 0.29, 99.8 -1.67, 126.25 25 M75.75 25 C100.63 1.14, 100.23 -2.16, 126.25 25" stroke="#1971c2" stroke-width="1" fill="none"></path></g><g transform="translate(560.7572410220253 496.5761602492561) rotate(0 38.84996795654297 12.5)"><text x="38.84996795654297" y="0" font-family="Virgil, Segoe UI Emoji" font-size="20px" fill="#1971c2" text-anchor="middle" style="white-space: pre;" direction="ltr" dominant-baseline="text-before-edge">Setor 3</text></g><g stroke-linecap="round" transform="translate(774.2071540469276 209.1762034098308) rotate(0 100 99.99995640345976)"><path d="M126.25 25 C143.11 43.74, 163.7 61.63, 174.75 75 M126.25 25 C139.86 39.88, 154.56 54.37, 174.75 75 M174.75 75 C201.66 99.23, 198.67 98.7, 174.75 125 M174.75 75 C197.88 100.49, 200.15 99.56, 174.75 125 M174.75 125 C160.62 139.06, 148.58 155.06, 126.25 175 M174.75 125 C159.64 140.77, 145.19 155.25, 126.25 175 M126.25 175 C102.64 199.22, 100.16 200.05, 75.75 175 M126.25 175 C101.7 198.89, 101.52 199.25, 75.75 175 M75.75 175 C57.1 154.18, 34.45 133.87, 25.25 125 M75.75 175 C64.98 164.57, 54.76 153.7, 25.25 125 M25.25 125 C0.07 99.2, -0.83 98.63, 25.25 75 M25.25 125 C1.61 102.15, 0.26 100.53, 25.25 75 M25.25 75 C46.35 54.13, 64.7 36.33, 75.75 25 M25.25 75 C37.5 63.39, 49.78 52.3, 75.75 25 M75.75 25 C101.95 0.58, 99.72 1.02, 126.25 25 M75.75 25 C101.83 -0.63, 103.3 -1.99, 126.25 25" stroke="#1971c2" stroke-width="1" fill="none"></path></g><g transform="translate(835.0471885317909 296.67618161156065) rotate(0 39.15996551513672 12.5)"><text x="39.15996551513672" y="0" font-family="Virgil, Segoe UI Emoji" font-size="20px" fill="#1971c2" text-anchor="middle" style="white-space: pre;" direction="ltr" dominant-baseline="text-before-edge">Setor 2</text></g><g stroke-linecap="round" transform="translate(782.2070319766151 593.8760935465496) rotate(0 100 99.99995640345975)"><path d="M126.25 25 C134.12 33.05, 145.86 46.15, 174.75 75 M126.25 25 C138.72 39.24, 153.9 53.2, 174.75 75 M174.75 75 C199.21 100.68, 199.88 99.46, 174.75 125 M174.75 75 C199.9 99.06, 199.4 100.93, 174.75 125 M174.75 125 C158.7 140.53, 142.85 157.51, 126.25 175 M174.75 125 C160.34 140.23, 144.09 154.9, 126.25 175 M126.25 175 C101.94 199.34, 100.94 201.42, 75.75 175 M126.25 175 C102.52 197.81, 98.78 202.23, 75.75 175 M75.75 175 C63.41 163.64, 50.21 151.01, 25.25 125 M75.75 175 C64.48 164.13, 54.88 154.09, 25.25 125 M25.25 125 C-1.55 98.32, 0.56 99.69, 25.25 75 M25.25 125 C-0.09 98.78, -1.27 100.75, 25.25 75 M25.25 75 C38.64 60.79, 51.01 48.08, 75.75 25 M25.25 75 C38.99 61.01, 54.41 47.01, 75.75 25 M75.75 25 C102.16 -1.57, 99.51 -1.11, 126.25 25 M75.75 25 C101.02 1.05, 101 -0.49, 126.25 25" stroke="#1971c2" stroke-width="1" fill="none"></path></g><g transform="translate(843.9870689028846 681.3760717482794) rotate(0 38.21996307373047 12.5)"><text x="38.21996307373047" y="0" font-family="Virgil, Segoe UI Emoji" font-size="20px" fill="#1971c2" text-anchor="middle" style="white-space: pre;" direction="ltr" dominant-baseline="text-before-edge">Setor 5</text></g><g stroke-linecap="round" transform="translate(211.6072242373573 619.5761057535808) rotate(0 100 99.99995640345975)"><path d="M126.25 25 C141.18 37.91, 153.56 50.54, 174.75 75 M126.25 25 C144.54 43.1, 162.72 61.42, 174.75 75 M174.75 75 C198.85 101.32, 198.95 101.89, 174.75 125 M174.75 75 C199.29 100.2, 198.73 102.22, 174.75 125 M174.75 125 C162.33 135.64, 149.5 149.45, 126.25 175 M174.75 125 C159.81 141.37, 142.94 155.95, 126.25 175 M126.25 175 C99.48 201.82, 99.69 198.28, 75.75 175 M126.25 175 C99.25 198.96, 102.64 199.14, 75.75 175 M75.75 175 C61.21 162.03, 47.84 150.82, 25.25 125 M75.75 175 C63.33 163.08, 53.69 154.04, 25.25 125 M25.25 125 C0.81 98.11, -0.68 101.03, 25.25 75 M25.25 125 C0.03 101.82, -0.26 98.39, 25.25 75 M25.25 75 C38.31 60.94, 48.13 52.01, 75.75 25 M25.25 75 C44.99 55.68, 65.03 36.79, 75.75 25 M75.75 25 C100.06 -0.06, 102.11 0.18, 126.25 25 M75.75 25 C98.85 0.22, 99.49 -0.91, 126.25 25" stroke="#1971c2" stroke-width="1" fill="none"></path></g><g transform="translate(273.1672599429237 707.0760839553107) rotate(0 38.439964294433594 12.5)"><text x="38.439964294433594" y="0" font-family="Virgil, Segoe UI Emoji" font-size="20px" fill="#1971c2" text-anchor="middle" style="white-space: pre;" direction="ltr" dominant-baseline="text-before-edge">Setor 4</text></g><g transform="translate(652.8682537987181 36.44285220191614) rotate(0 107.07994079589844 12.5)"><text x="0" y="0" font-family="Virgil, Segoe UI Emoji" font-size="20px" fill="#1e1e1e" text-anchor="start" style="white-space: pre;" direction="ltr" dominant-baseline="text-before-edge">Demanda total = 100</text></g><g transform="translate(663.7634738740519 116.21431259881908) rotate(0 102.80992889404297 12.5)"><text x="0" y="0" font-family="Virgil, Segoe UI Emoji" font-size="20px" fill="#1e1e1e" text-anchor="start" style="white-space: pre;" direction="ltr" dominant-baseline="text-before-edge">Nº de Técnicos = 50</text></g><g transform="translate(319.23913501558513 57.26185135614341) rotate(0 132.41990661621094 25)"><text x="132.41990661621094" y="0" font-family="Virgil, Segoe UI Emoji" font-size="20px" fill="#1e1e1e" text-anchor="middle" style="white-space: pre;" direction="ltr" dominant-baseline="text-before-edge">Cada técnico é capaz de </text><text x="132.41990661621094" y="25" font-family="Virgil, Segoe UI Emoji" font-size="20px" fill="#1e1e1e" text-anchor="middle" style="white-space: pre;" direction="ltr" dominant-baseline="text-before-edge">atender a duas demandas.</text></g><g stroke-linecap="round" transform="translate(297.83086649577604 10) rotate(0 149.33334350585938 70.66665649414062)"><path d="M32 0 C114.77 1.79, 198.2 0.42, 266.67 0 M32 0 C117.64 -1.1, 203.95 -1.55, 266.67 0 M266.67 0 C288.85 -1.77, 297.86 9.51, 298.67 32 M266.67 0 C285.73 1.01, 298.51 11.91, 298.67 32 M298.67 32 C300.55 58.5, 298.94 87.33, 298.67 109.33 M298.67 32 C299.62 56.77, 299.5 81.51, 298.67 109.33 M298.67 109.33 C297.76 128.68, 287.98 139.75, 266.67 141.33 M298.67 109.33 C300.7 132.15, 285.86 140.54, 266.67 141.33 M266.67 141.33 C199.69 139.82, 129.93 138.62, 32 141.33 M266.67 141.33 C198.32 142.9, 131.14 143.21, 32 141.33 M32 141.33 C11.76 142.1, 0.84 130.59, 0 109.33 M32 141.33 C11.51 142.25, 0.02 131.37, 0 109.33 M0 109.33 C-0.88 84.26, -0.1 60.82, 0 32 M0 109.33 C0.68 88.83, -0.88 68.88, 0 32 M0 32 C-1.32 9.13, 11.16 0.8, 32 0 M0 32 C1.47 8.99, 8.74 -0.03, 32 0" stroke="#e03131" stroke-width="1" fill="none"></path></g><g stroke-linecap="round" transform="translate(619.164281209318 16.666666666666657) rotate(0 142.66662597656276 33.33333333333333)"><path d="M16.67 0 C90.31 -1.73, 164.99 -1.94, 268.67 0 M16.67 0 C104.95 -0.36, 195.03 -0.6, 268.67 0 M268.67 0 C278.97 -1.16, 283.36 6.43, 285.33 16.67 M268.67 0 C279.62 1.24, 286.4 5.3, 285.33 16.67 M285.33 16.67 C286.02 30.18, 286.09 41.74, 285.33 50 M285.33 16.67 C285.71 25.64, 285 34.03, 285.33 50 M285.33 50 C285.31 59.53, 281.54 67.96, 268.67 66.67 M285.33 50 C283.2 60.32, 279.53 64.88, 268.67 66.67 M268.67 66.67 C213.44 65.87, 160.09 66.94, 16.67 66.67 M268.67 66.67 C169.67 65.98, 70.64 66.27, 16.67 66.67 M16.67 66.67 C6.4 66.59, 0.73 61.91, 0 50 M16.67 66.67 C5.58 67.37, 0.32 62.85, 0 50 M0 50 C0.54 41.14, -0.66 32.24, 0 16.67 M0 50 C-1.1 39.16, -0.89 26.67, 0 16.67 M0 16.67 C0.49 6.35, 6.83 -1.46, 16.67 0 M0 16.67 C-1.93 5.53, 3.87 0.03, 16.67 0" stroke="#e03131" stroke-width="1" fill="none"></path></g><g stroke-linecap="round" transform="translate(617.830866495777 96.66664123535159) rotate(0 142.66662597656276 33.33333333333333)"><path d="M16.67 0 C117.74 -0.28, 217.47 -1.7, 268.67 0 M16.67 0 C91.19 0.48, 164.69 0.73, 268.67 0 M268.67 0 C277.8 0.88, 285.2 6.63, 285.33 16.67 M268.67 0 C280.85 -0.25, 286.57 7.82, 285.33 16.67 M285.33 16.67 C285.82 27.66, 284.9 36.41, 285.33 50 M285.33 16.67 C284.97 25.38, 285.41 35.3, 285.33 50 M285.33 50 C287.1 62.4, 277.92 65.98, 268.67 66.67 M285.33 50 C285.08 59.33, 277.82 67.84, 268.67 66.67 M268.67 66.67 C190.42 65.49, 114.05 64.52, 16.67 66.67 M268.67 66.67 C202.18 67.03, 135.16 66.69, 16.67 66.67 M16.67 66.67 C6.29 67.47, 0.02 61.72, 0 50 M16.67 66.67 C5.87 68.41, -0.77 60.78, 0 50 M0 50 C-0.79 41.34, 0.69 34.03, 0 16.67 M0 50 C-0.37 39.45, 0.54 30.82, 0 16.67 M0 16.67 C1.28 4.1, 3.88 -0.02, 16.67 0 M0 16.67 C-1.68 5.59, 3.7 -0.76, 16.67 0" stroke="#e03131" stroke-width="1" fill="none"></path></g></svg>